<svg xmlns="http://www.w3.org/2000/svg" viewBox="0 0 350.83 289.64"><defs><style>.cls-1{fill:#ffff;}</style></defs><title>Element 1</title><g id="Ebene_2" data-name="Ebene 2"><g id="Ebene_1-2" data-name="Ebene 1"><path class="cls-1" d="M20.76,283.66A11.3,11.3,0,0,1,19.1,286a11.63,11.63,0,0,1-2.24,1.89,11.07,11.07,0,0,1-2.74,1.27,10.89,10.89,0,0,1-3.14.46,10.61,10.61,0,0,1-4.29-.87,11.06,11.06,0,0,1-5.82-5.83,11,11,0,0,1,0-8.57,11.19,11.19,0,0,1,2.35-3.48,11.37,11.37,0,0,1,3.47-2.35,10.78,10.78,0,0,1,4.29-.86,10.88,10.88,0,0,1,5.54,1.51A10.6,10.6,0,0,1,18.87,271a11.22,11.22,0,0,1,1.83,2.53l-1.68.86a8.66,8.66,0,0,0-1.43-2.05,8.78,8.78,0,0,0-1.9-1.55,9.23,9.23,0,0,0-2.25-1,8.41,8.41,0,0,0-2.46-.35,8.88,8.88,0,0,0-3.54.71,9.16,9.16,0,0,0-2.88,2,9,9,0,0,0-1.94,2.93,9.43,9.43,0,0,0,0,7.13,9.31,9.31,0,0,0,1.92,2.93,9,9,0,0,0,2.88,2,9,9,0,0,0,6.07.35,9.09,9.09,0,0,0,2.29-1,9,9,0,0,0,1.89-1.59,8.44,8.44,0,0,0,1.38-2.06Z"/><path class="cls-1" d="M63.14,278.66a10.76,10.76,0,0,1-.86,4.28,11,11,0,0,1-5.83,5.83,11,11,0,0,1-8.56,0,11,11,0,0,1-5.83-5.83,11,11,0,0,1,0-8.57,11.19,11.19,0,0,1,2.35-3.48,11.42,11.42,0,0,1,3.48-2.35,11.08,11.08,0,0,1,8.56,0,11.54,11.54,0,0,1,3.48,2.35,11.36,11.36,0,0,1,2.35,3.48A10.78,10.78,0,0,1,63.14,278.66Zm-1.92,0a9.13,9.13,0,0,0-.7-3.57,9.31,9.31,0,0,0-1.92-2.93,9,9,0,0,0-14.78,2.93,9.31,9.31,0,0,0,0,7.13,9,9,0,0,0,1.92,2.93,9,9,0,0,0,12.86,0,9.31,9.31,0,0,0,1.92-2.93A9,9,0,0,0,61.22,278.66Z"/><path class="cls-1" d="M100.1,283.54a5.74,5.74,0,0,1-.49,2.36,6,6,0,0,1-1.34,1.94,6.9,6.9,0,0,1-2,1.31,6.18,6.18,0,0,1-2.44.49,6.42,6.42,0,0,1-2.07-.34,6,6,0,0,1-1.77-.95,6.16,6.16,0,0,1-1.36-1.43,6.44,6.44,0,0,1-.84-1.8l2-.06a4.15,4.15,0,0,0,1.5,2,4.21,4.21,0,0,0,2.55.8,4.33,4.33,0,0,0,1.74-.35,4.73,4.73,0,0,0,1.37-.93,4,4,0,0,0,.9-1.36,4.38,4.38,0,0,0,.32-1.66,4,4,0,0,0-.73-2.41,4.34,4.34,0,0,0-2.08-1.5,3.89,3.89,0,0,0-.59-.18l-.82-.2-.89-.21-.74-.2a6.69,6.69,0,0,1-3.25-2,5.22,5.22,0,0,1-1.17-3.45,5.42,5.42,0,0,1,.45-2.21,5.94,5.94,0,0,1,1.25-1.8,5.79,5.79,0,0,1,1.85-1.22,5.71,5.71,0,0,1,2.27-.44,5.54,5.54,0,0,1,3.32,1.05,5.86,5.86,0,0,1,2.11,2.73l-2,.06a3.79,3.79,0,0,0-1.4-1.51,3.83,3.83,0,0,0-2-.53,4,4,0,0,0-1.54.3,3.68,3.68,0,0,0-1.24.84,4.18,4.18,0,0,0-.82,1.24,3.93,3.93,0,0,0,.41,3.76A4.22,4.22,0,0,0,92.66,277c.18.06.42.13.72.2l.93.21.93.21.68.17A5.86,5.86,0,0,1,99.06,280,6.06,6.06,0,0,1,100.1,283.54Z"/><path class="cls-1" d="M146.84,289.33H145L142,271.58l-6.28,17.75-6.29-17.6-2.92,17.6h-1.89L128.21,268l1.93,0,5.61,15.77L141.36,268h1.92Z"/><path class="cls-1" d="M183,289.33H172.11V268H182.6v1.65h-8.66v8h8.14v1.64h-8.14v8.45h9Z"/><path class="cls-1" d="M227.43,269.78h-7.19v19.55h-1.83V269.78h-7.2V268h16.22Z"/><path class="cls-1" d="M262,289.33H260.2V268H262Z"/><path class="cls-1" d="M313.28,283.66a11.3,11.3,0,0,1-1.66,2.36,11.63,11.63,0,0,1-2.24,1.89,11.14,11.14,0,0,1-2.75,1.27,10.79,10.79,0,0,1-3.14.46,10.6,10.6,0,0,1-4.28-.87,11,11,0,0,1-5.82-5.83,11,11,0,0,1,0-8.57,11.33,11.33,0,0,1,2.34-3.48,11.54,11.54,0,0,1,3.48-2.35A11,11,0,0,1,311.39,271a11.22,11.22,0,0,1,1.83,2.53l-1.68.86a8.89,8.89,0,0,0-3.34-3.6,9,9,0,0,0-2.24-1,8.43,8.43,0,0,0-2.47-.35,8.83,8.83,0,0,0-3.53.71,9.16,9.16,0,0,0-2.88,2,9,9,0,0,0-1.94,2.93,9.43,9.43,0,0,0,0,7.13,9.31,9.31,0,0,0,1.92,2.93,9,9,0,0,0,6.43,2.69,8.93,8.93,0,0,0,2.52-.37,9.25,9.25,0,0,0,2.29-1,9,9,0,0,0,1.89-1.59,8.74,8.74,0,0,0,1.38-2.06Z"/><path class="cls-1" d="M350.83,283.54a5.74,5.74,0,0,1-.49,2.36,6,6,0,0,1-1.34,1.94,6.9,6.9,0,0,1-2,1.31,6.18,6.18,0,0,1-2.44.49,6.42,6.42,0,0,1-2.07-.34,6,6,0,0,1-1.77-.95,6.16,6.16,0,0,1-1.36-1.43,6.44,6.44,0,0,1-.84-1.8l2-.06a4.26,4.26,0,0,0,4.06,2.78,4.33,4.33,0,0,0,1.74-.35,4.73,4.73,0,0,0,1.37-.93,4,4,0,0,0,.9-1.36,4.38,4.38,0,0,0,.32-1.66,4,4,0,0,0-.73-2.41,4.34,4.34,0,0,0-2.08-1.5,3.89,3.89,0,0,0-.59-.18l-.82-.2-.89-.21-.74-.2a6.69,6.69,0,0,1-3.25-2,5.22,5.22,0,0,1-1.17-3.45,5.42,5.42,0,0,1,.45-2.21,5.94,5.94,0,0,1,1.25-1.8,5.79,5.79,0,0,1,1.85-1.22,5.71,5.71,0,0,1,2.27-.44,5.54,5.54,0,0,1,3.32,1.05,5.86,5.86,0,0,1,2.11,2.73l-2,.06a3.79,3.79,0,0,0-1.4-1.51,3.83,3.83,0,0,0-2-.53,4,4,0,0,0-1.54.3,3.68,3.68,0,0,0-1.24.84,4.18,4.18,0,0,0-.82,1.24,3.93,3.93,0,0,0,.41,3.76,4.22,4.22,0,0,0,2.12,1.42c.18.06.42.13.72.2l.93.21.93.21.68.17a5.86,5.86,0,0,1,3.14,2.15A6.06,6.06,0,0,1,350.83,283.54Z"/><polygon class="cls-1" points="20.33 52.32 20.33 222.1 34.23 222.1 34.23 88.17 102.21 166.11 171.08 87.92 171.08 256.81 184.97 256.81 184.97 52.32 102.21 146.39 20.33 52.32"/><polygon class="cls-1" points="236.28 136.53 330.19 49.18 310.53 49.18 210.08 142.11 210.08 0 195.41 0 195.41 222.1 210.08 222.1 210.08 160.65 223.73 148.03 226.3 145.67 310.53 222.1 330.5 222.1 236.28 136.53"/></g></g></svg>