<svg xmlns="http://www.w3.org/2000/svg" viewBox="0 0 49.43 53.18"><defs><style>.cls-1{fill:#fff;}</style></defs><title>Element 10</title><g id="Ebene_2" data-name="Ebene 2"><g id="Ebene_2-2" data-name="Ebene 2"><path class="cls-1" d="M14.58,2C12.53-.42,9.85-.66,7.45,1.38,4,4.3-.89,10.11.14,17.36c1.62,11.5,11.37,21.75,11.37,21.75s17.78,23,34,10.16c3.88-2.87,6.41-6.16-.15-11.66-6.16-6.15-9.88-3.25-9.88-3.25S34,35.67,31.52,38a4.3,4.3,0,0,1-5.14.64,22.48,22.48,0,0,1-5.49-4.31c-3.37-4.12-5.59-7-7-9a4.67,4.67,0,0,1,.94-6.49c3.16-2.37,6.76-6.45,3.73-11.51A43.06,43.06,0,0,0,14.58,2Z"/></g></g></svg>